Coordinates
version=1
nRows=6
nColumns=63
inDegrees=yes

Units are S.I. units (second, meters, Newtons, ...)
If the header above contains a line with 'inDegrees', this indicates whether rotational values are in degrees (yes) or radians (no).

endheader
time	pelvis_tilt	pelvis_list	pelvis_rotation	pelvis_tx	pelvis_ty	pelvis_tz	hip_flexion_r	hip_adduction_r	hip_rotation_r	knee_angle_r	knee_angle_r_beta	ankle_angle_r	subtalar_angle_r	mtp_angle_r	hip_flexion_l	hip_adduction_l	hip_rotation_l	knee_angle_l	knee_angle_l_beta	ankle_angle_l	subtalar_angle_l	mtp_angle_l	L5_S1_Flex_Ext	L5_S1_Lat_Bending	L5_S1_axial_rotation	L4_L5_Flex_Ext	L4_L5_Lat_Bending	L4_L5_axial_rotation	L3_L4_Flex_Ext	L3_L4_Lat_Bending	L3_L4_axial_rotation	L2_L3_Flex_Ext	L2_L3_Lat_Bending	L2_L3_axial_rotation	L1_L2_Flex_Ext	L1_L2_Lat_Bending	L1_L2_axial_rotation	L1_T12_Flex_Ext	L1_T12_Lat_Bending	L1_T12_axial_rotation	Abs_r3	Abs_r2	Abs_r1	Abs_t1	Abs_t2	neck_flexion	neck_bending	neck_rotation	arm_flex_r	arm_add_r	arm_rot_r	elbow_flex_r	pro_sup_r	wrist_flex_r	wrist_dev_r	arm_flex_l	arm_add_l	arm_rot_l	elbow_flex_l	pro_sup_l	wrist_flex_l	wrist_dev_l
3.589286	-3.329373	-14.156719	86.301649	0.282758	0.939033	0.606264	-2.141304	-1.867116	0.842458	0.212001	0.003700	28.706767	7.355932	0.000000	-0.234928	0.132530	-8.107959	7.557912	0.131910	32.239153	16.992880	0.000000	-0.017282	0.134272	0.246170	-0.032095	0.178581	0.261555	-0.028393	0.326468	0.261555	-0.019752	0.326468	0.215399	-0.016048	0.273807	0.200013	-0.009875	0.207987	0.184627	-0.123447	1.518909	1.369122	0.000000	0.000000	25.090589	-4.403564	-2.206426	5.958220	-17.058613	9.103810	42.504389	75.336853	-29.093503	8.838428	4.124030	-11.063258	134.132145	0.363274	76.083400	-2.778961	15.034793
3.607143	-2.999954	-14.148291	86.869882	0.282243	0.938007	0.606199	-2.235487	-1.509928	0.431175	0.212201	0.003704	28.815951	7.286834	0.000000	-0.022186	-0.229107	-7.620093	7.931307	0.138427	32.609711	16.920412	0.000000	-0.029326	0.176129	0.236488	-0.054462	0.234252	0.251268	-0.048180	0.428240	0.251268	-0.033517	0.428240	0.206927	-0.027233	0.359163	0.192146	-0.016757	0.272824	0.177366	-0.209476	1.992408	1.315273	0.000000	0.000000	25.453546	-5.043059	-2.000563	7.236310	-17.519892	17.971689	36.045928	67.852784	-28.492157	8.245818	4.308309	-10.922110	135.352479	0.358227	74.723126	-3.365724	14.990896
3.625000	-2.621281	-14.101993	87.426005	0.281614	0.936770	0.606094	-2.368362	-1.110580	0.145610	0.210950	0.003682	28.926739	7.073726	0.000000	0.154234	-0.631813	-7.131124	8.313223	0.145093	33.034547	16.815226	0.000000	-0.042581	0.228091	0.244359	-0.079078	0.303361	0.259632	-0.069957	0.554580	0.259632	-0.048666	0.554580	0.213814	-0.039541	0.465123	0.198542	-0.024331	0.353313	0.183269	-0.304155	2.580208	1.359053	0.000000	0.000000	25.861224	-5.788902	-1.777062	8.296388	-17.835524	27.981087	30.133486	59.618456	-27.250494	7.368734	4.505153	-10.719875	136.340677	0.351567	74.807743	-3.693123	14.908057
3.642857	-2.195249	-14.028833	87.948923	0.280887	0.935354	0.605936	-2.527555	-0.671388	-0.028243	0.208464	0.003638	29.034762	6.760706	0.000000	0.299548	-1.073833	-6.661529	8.702328	0.151884	33.501363	16.676396	0.000000	-0.055594	0.290063	0.270193	-0.103244	0.385784	0.287080	-0.091335	0.705260	0.287080	-0.063538	0.705260	0.236419	-0.051625	0.591497	0.219532	-0.031766	0.449308	0.202645	-0.397103	3.281256	1.502734	0.000000	0.000000	26.296265	-6.611536	-1.517908	9.033637	-18.019343	38.899685	24.913430	50.962384	-25.450797	6.156778	4.665083	-10.467607	137.309604	0.350599	74.539981	-3.914862	14.684490
3.660714	-1.738582	-13.919754	88.384082	0.280137	0.933860	0.605749	-2.723717	-0.212313	-0.117689	0.197119	0.003440	29.138669	6.453909	0.000000	0.388931	-1.545284	-6.325020	9.084209	0.158549	33.998920	16.582362	0.000000	-0.071526	0.359140	0.313774	-0.132832	0.477656	0.333384	-0.117511	0.873213	0.333384	-0.081747	0.873213	0.274552	-0.066419	0.732359	0.254941	-0.040870	0.556308	0.235330	-0.510906	4.062666	1.745115	0.000000	0.000000	26.732002	-7.488531	-1.237127	9.450543	-18.095306	50.381043	20.419538	42.046496	-23.084402	4.682922	4.743852	-10.175530	138.015649	0.333681	72.900399	-4.150562	14.356083
3.678571	-1.254177	-13.818348	88.783216	0.279326	0.932322	0.605518	-2.908001	0.271190	-0.144942	0.198426	0.003463	29.234086	6.097708	0.000000	0.489583	-2.037814	-5.980835	9.488861	0.165612	34.508101	16.403050	0.000000	-0.081620	0.433439	0.372037	-0.151576	0.576474	0.395289	-0.134093	1.053865	0.395289	-0.093283	1.053865	0.325533	-0.075792	0.883870	0.302280	-0.046638	0.671398	0.279028	-0.583002	4.903154	2.069159	0.000000	0.000000	27.094143	-8.474905	-1.073104	9.543145	-18.115502	62.153651	16.690396	33.520555	-20.634451	3.097496	4.786477	-9.858682	138.697855	0.361579	70.532036	-4.355930	13.843083
